{
	"asset":{
		"generator":"Khronos glTF Blender I/O v4.0.44",
		"version":"2.0"
	},
	"extensionsUsed":[
		"KHR_materials_transmission"
	],
	"scene":0,
	"scenes":[
		{
			"name":"Scene",
			"nodes":[
				2,
				3
			]
		}
	],
	"nodes":[
		{
			"name":"RootNode"
		},
		{
			"children":[
				0
			],
			"name":"e103e87b6f1747cd8501a8337c3bf1cf.fbx",
			"rotation":[
				0.70710688829422,
				0,
				0,
				0.7071066498756409
			]
		},
		{
			"children":[
				1
			],
			"name":"Sketchfab_model",
			"rotation":[
				-0.70710688829422,
				0,
				0,
				0.7071066498756409
			]
		},
		{
			"mesh":0,
			"name":"Jameson_Atlas_0",
			"rotation":[
				0.9778771996498108,
				-0.2091798335313797,
				0,
				9.143537482714237e-09
			],
			"scale":[
				0.016000008210539818,
				0.016000015661120415,
				0.016000015661120415
			],
			"translation":[
				0,
				0.05542046204209328,
				0
			]
		}
	],
	"materials":[
		{
			"alphaMode":"BLEND",
			"extensions":{
				"KHR_materials_transmission":{
					"transmissionFactor":1,
					"transmissionTexture":{
						"index":0
					}
				}
			},
			"name":"Atlas",
			"normalTexture":{
				"index":1
			},
			"pbrMetallicRoughness":{
				"baseColorTexture":{
					"index":2
				},
				"metallicRoughnessTexture":{
					"index":3
				}
			}
		}
	],
	"meshes":[
		{
			"name":"Jameson_Atlas_0",
			"primitives":[
				{
					"attributes":{
						"POSITION":0,
						"NORMAL":1,
						"TEXCOORD_0":2,
						"TEXCOORD_1":3,
						"TEXCOORD_2":4,
						"TEXCOORD_3":5,
						"TEXCOORD_4":6
					},
					"indices":7,
					"material":0
				}
			]
		}
	],
	"textures":[
		{
			"sampler":0,
			"source":0
		},
		{
			"sampler":0,
			"source":1
		},
		{
			"sampler":0,
			"source":2
		},
		{
			"sampler":0,
			"source":3
		}
	],
	"images":[
		{
			"mimeType":"image/png",
			"name":"Image_3",
			"uri":"textures/Image_3-1.png"
		},
		{
			"mimeType":"image/jpeg",
			"name":"Image_2",
			"uri":"textures/Image_2.jpg"
		},
		{
			"mimeType":"image/png",
			"name":"Image_0",
			"uri":"textures/Image_0-1.png"
		},
		{
			"mimeType":"image/png",
			"name":"Image_1",
			"uri":"textures/Image_1-1.png"
		}
	],
	"accessors":[
		{
			"bufferView":0,
			"componentType":5126,
			"count":189,
			"max":[
				3.6139631271362305,
				3.613964557647705,
				14.426864624023438
			],
			"min":[
				-3.613961696624756,
				-3.613960027694702,
				-14.932195663452148
			],
			"type":"VEC3"
		},
		{
			"bufferView":1,
			"componentType":5126,
			"count":189,
			"type":"VEC3"
		},
		{
			"bufferView":2,
			"componentType":5126,
			"count":189,
			"type":"VEC2"
		},
		{
			"bufferView":3,
			"componentType":5126,
			"count":189,
			"type":"VEC2"
		},
		{
			"bufferView":4,
			"componentType":5126,
			"count":189,
			"type":"VEC2"
		},
		{
			"bufferView":5,
			"componentType":5126,
			"count":189,
			"type":"VEC2"
		},
		{
			"bufferView":6,
			"componentType":5126,
			"count":189,
			"type":"VEC2"
		},
		{
			"bufferView":7,
			"componentType":5123,
			"count":828,
			"type":"SCALAR"
		}
	],
	"bufferViews":[
		{
			"buffer":0,
			"byteLength":2268,
			"byteOffset":0,
			"target":34962
		},
		{
			"buffer":0,
			"byteLength":2268,
			"byteOffset":2268,
			"target":34962
		},
		{
			"buffer":0,
			"byteLength":1512,
			"byteOffset":4536,
			"target":34962
		},
		{
			"buffer":0,
			"byteLength":1512,
			"byteOffset":6048,
			"target":34962
		},
		{
			"buffer":0,
			"byteLength":1512,
			"byteOffset":7560,
			"target":34962
		},
		{
			"buffer":0,
			"byteLength":1512,
			"byteOffset":9072,
			"target":34962
		},
		{
			"buffer":0,
			"byteLength":1512,
			"byteOffset":10584,
			"target":34962
		},
		{
			"buffer":0,
			"byteLength":1656,
			"byteOffset":12096,
			"target":34963
		}
	],
	"samplers":[
		{
			"magFilter":9729,
			"minFilter":9987
		}
	],
	"buffers":[
		{
			"byteLength":13752,
			"uri":"Jameson.bin"
		}
	]
}
