{
	"asset":{
		"generator":"Khronos glTF Blender I/O v4.0.44",
		"version":"2.0"
	},
	"extensionsUsed":[
		"KHR_materials_transmission"
	],
	"scene":0,
	"scenes":[
		{
			"name":"Scene",
			"nodes":[
				0
			]
		}
	],
	"nodes":[
		{
			"mesh":0,
			"name":"Malibu_Atlas_0",
			"rotation":[
				0.8193346858024597,
				-0.5733099579811096,
				0.001452982658520341,
				0.0021167397499084473
			],
			"scale":[
				0.01649998500943184,
				0.016499986872076988,
				0.016499986872076988
			],
			"translation":[
				0,
				0.061125218868255615,
				0
			]
		}
	],
	"materials":[
		{
			"alphaMode":"BLEND",
			"extensions":{
				"KHR_materials_transmission":{
					"transmissionFactor":1,
					"transmissionTexture":{
						"index":0
					}
				}
			},
			"name":"Atlas.001",
			"normalTexture":{
				"index":1
			},
			"pbrMetallicRoughness":{
				"baseColorTexture":{
					"index":2
				},
				"metallicRoughnessTexture":{
					"index":3
				}
			}
		}
	],
	"meshes":[
		{
			"name":"Malibu_Atlas_0",
			"primitives":[
				{
					"attributes":{
						"POSITION":0,
						"NORMAL":1,
						"TEXCOORD_0":2,
						"TEXCOORD_1":3,
						"TEXCOORD_2":4,
						"TEXCOORD_3":5,
						"TEXCOORD_4":6
					},
					"indices":7,
					"material":0
				}
			]
		}
	],
	"textures":[
		{
			"sampler":0,
			"source":0
		},
		{
			"sampler":0,
			"source":1
		},
		{
			"sampler":0,
			"source":2
		},
		{
			"sampler":0,
			"source":3
		}
	],
	"images":[
		{
			"mimeType":"image/png",
			"name":"Atlas_transmission",
			"uri":"textures/Atlas_transmission.png"
		},
		{
			"mimeType":"image/jpeg",
			"name":"Atlas_normal",
			"uri":"textures/Atlas_normal.jpg"
		},
		{
			"mimeType":"image/png",
			"name":"Atlas_baseColor",
			"uri":"textures/Atlas_baseColor.png"
		},
		{
			"mimeType":"image/png",
			"name":"Atlas_metallicRoughness",
			"uri":"textures/Atlas_metallicRoughness.png"
		}
	],
	"accessors":[
		{
			"bufferView":0,
			"componentType":5126,
			"count":173,
			"max":[
				3.9597272872924805,
				3.9204890727996826,
				14.172435760498047
			],
			"min":[
				-3.8341822624206543,
				-3.873420238494873,
				-13.055564880371094
			],
			"type":"VEC3"
		},
		{
			"bufferView":1,
			"componentType":5126,
			"count":173,
			"type":"VEC3"
		},
		{
			"bufferView":2,
			"componentType":5126,
			"count":173,
			"type":"VEC2"
		},
		{
			"bufferView":3,
			"componentType":5126,
			"count":173,
			"type":"VEC2"
		},
		{
			"bufferView":4,
			"componentType":5126,
			"count":173,
			"type":"VEC2"
		},
		{
			"bufferView":5,
			"componentType":5126,
			"count":173,
			"type":"VEC2"
		},
		{
			"bufferView":6,
			"componentType":5126,
			"count":173,
			"type":"VEC2"
		},
		{
			"bufferView":7,
			"componentType":5123,
			"count":756,
			"type":"SCALAR"
		}
	],
	"bufferViews":[
		{
			"buffer":0,
			"byteLength":2076,
			"byteOffset":0,
			"target":34962
		},
		{
			"buffer":0,
			"byteLength":2076,
			"byteOffset":2076,
			"target":34962
		},
		{
			"buffer":0,
			"byteLength":1384,
			"byteOffset":4152,
			"target":34962
		},
		{
			"buffer":0,
			"byteLength":1384,
			"byteOffset":5536,
			"target":34962
		},
		{
			"buffer":0,
			"byteLength":1384,
			"byteOffset":6920,
			"target":34962
		},
		{
			"buffer":0,
			"byteLength":1384,
			"byteOffset":8304,
			"target":34962
		},
		{
			"buffer":0,
			"byteLength":1384,
			"byteOffset":9688,
			"target":34962
		},
		{
			"buffer":0,
			"byteLength":1512,
			"byteOffset":11072,
			"target":34963
		}
	],
	"samplers":[
		{
			"magFilter":9729,
			"minFilter":9987
		}
	],
	"buffers":[
		{
			"byteLength":12584,
			"uri":"Malibu.bin"
		}
	]
}
